<?xml version="1.0" encoding="utf-8"?>
<!-- Generator: Adobe Illustrator 27.6.1, SVG Export Plug-In . SVG Version: 6.00 Build 0)  -->
<svg version="1.1" id="Layer_2_00000037658393766856929890000007553644921543069360_"
	 xmlns="http://www.w3.org/2000/svg" xmlns:xlink="http://www.w3.org/1999/xlink" x="0px" y="0px" viewBox="0 0 478.1 451"
	 style="enable-background:new 0 0 478.1 451;" xml:space="preserve">
<style type="text/css">
	.st0{fill:#FD7E25;}
	.st1{enable-background:new    ;}
</style>
<g>
	<g>
		<path class="st0" d="M239.1,63c43.4,0,84.2,16.9,114.9,47.6s47.6,71.5,47.6,114.9s-16.9,84.2-47.6,114.9S282.5,388,239.1,388
			s-84.2-16.9-114.9-47.6s-47.6-71.5-47.6-114.9s16.9-84.2,47.6-114.9S195.7,63,239.1,63 M239.1,53c-95.2,0-172.5,77.2-172.5,172.5
			S143.8,398,239.1,398s172.5-77.3,172.5-172.5S334.3,53,239.1,53L239.1,53z"/>
	</g>
	<g>
		<g>
			<rect x="233.5" y="79.6" class="st0" width="10" height="36.7"/>
		</g>
		<g>
			<rect x="93.2" y="221" class="st0" width="36.7" height="10"/>
		</g>
		<g>
			<rect x="234.5" y="334.6" class="st0" width="10" height="36.7"/>
		</g>
		<g>
			<rect x="348.2" y="220" class="st0" width="36.7" height="10"/>
		</g>
		<g>
			<rect x="167.1" y="96.7" transform="matrix(0.866 -0.5 0.5 0.866 -31.1638 99.7818)" class="st0" width="7" height="22.7"/>
		</g>
		<g>
			
				<rect x="117.5" y="146.7" transform="matrix(0.4998 -0.8661 0.8661 0.4998 -76.4038 183.876)" class="st0" width="7" height="22.7"/>
		</g>
		<g>
			<rect x="110.3" y="290.4" transform="matrix(0.866 -0.5 0.5 0.866 -130.6435 100.2027)" class="st0" width="22.7" height="7"/>
		</g>
		<g>
			<rect x="160.2" y="340" transform="matrix(0.5 -0.866 0.866 0.5 -211.7419 320.3094)" class="st0" width="22.7" height="7"/>
		</g>
		<g>
			<rect x="304" y="331.5" transform="matrix(0.866 -0.5 0.5 0.866 -130.221 199.6844)" class="st0" width="7" height="22.7"/>
		</g>
		<g>
			<rect x="353.5" y="281.7" transform="matrix(0.5 -0.866 0.866 0.5 -75.2787 455.7344)" class="st0" width="7" height="22.7"/>
		</g>
		<g>
			<rect x="345.1" y="153.5" transform="matrix(0.866 -0.5 0.5 0.866 -30.7425 199.2598)" class="st0" width="22.7" height="7"/>
		</g>
		<g>
			<rect x="295.1" y="104" transform="matrix(0.5 -0.866 0.866 0.5 60.1582 319.1629)" class="st0" width="22.7" height="7"/>
		</g>
	</g>
	<g>
		<rect x="235.1" y="185.7" class="st0" width="8" height="39.8"/>
	</g>
	<g>
		<rect x="235.1" y="135.7" class="st0" width="8" height="89.8"/>
	</g>
</g>
<g class="st1">
	<path class="st0" d="M38.6,157.9l23.9,7.6l-2.2,6.9l-23.9-7.6l-2,6.5l-5.8-1.8l6.3-19.8l5.8,1.8L38.6,157.9z"/>
</g>
<g class="st1">
	<path class="st0" d="M35.4,142.1c0.8-2,3.1-3,5.1-2.2s3,3.1,2.2,5.1s-3.1,3-5.1,2.2C35.5,146.4,34.6,144.1,35.4,142.1z M48.5,143.8
		l19.3,7.8l-2.5,6.2L46,150L48.5,143.8z"/>
</g>
<g class="st1">
	<path class="st0" d="M50.5,137.7l3.3-5.9l2.1,1.2c-1.4-2.8-0.5-5.1,0.3-6.5c0.4-0.8,1.3-2.2,2.7-3c1.1-0.6,2.4-0.9,3.8-0.8
		c-0.5-0.9-0.9-2-1-3.6c-0.1-1.7,0.4-3,1.2-4.4c1.2-2.2,2.9-3.6,4.6-4.1c2.7-0.8,5.2,0.4,6.5,1.2l11.5,6.5l-3.3,5.9L73,119
		c-0.9-0.5-2.6-1.4-4-1.2c-0.9,0.1-1.7,0.7-2.2,1.6c-0.5,1-0.6,2-0.2,2.9c0.5,1.3,1.9,2.2,3.1,2.9l9,5.1l-3.3,5.9l-9.4-5.3
		c-1.2-0.7-2.7-1.4-4.1-1.1c-1,0.3-1.5,0.9-1.8,1.5c-0.4,0.8-0.6,1.6-0.4,2.4c0.4,1.7,2.5,2.9,3.1,3.2L72,142l-3.3,5.9L50.5,137.7z"
		/>
</g>
<g class="st1">
	<path class="st0" d="M93.4,93.6l-9.7,12.2c0.9,0.7,2.3,1.3,3.6,1.2c1.5-0.1,2.5-1.1,3.2-1.9c0.6-0.8,1.1-1.7,1.2-2.5
		c0-0.1,0.1-1-0.5-2.2l4.5-4.6c1.7,2.6,1.8,5,1.6,6.4c-0.3,2.3-1.4,4.3-2.9,6.1c-1.9,2.5-4.1,4.3-7.5,4.7c-2.6,0.3-5.5-0.4-8.2-2.5
		c-2.3-1.9-4.1-4.6-4.5-7.6c-0.4-3.5,1.2-6.3,2.6-8.1s3.9-4.2,7.6-4.5c3.6-0.3,6.4,1.3,8.5,2.9L93.4,93.6z M86.4,96
		c-0.2-0.1-1.4-0.6-2.7-0.4c-1,0.2-2,0.7-2.9,1.8c-1.1,1.4-1.2,2.6-1.1,3.5c0.1,0.8,0.4,1.6,1,2.3L86.4,96z"/>
</g>
<g class="st1">
	<path class="st0" d="M94.4,62l21.3,22.8l-5.3,4.9L89.1,66.9L94.4,62z"/>
</g>
<g class="st1">
	<path class="st0" d="M106.3,64.9l5.3-4.1l1.5,2c0-3.3,1.7-5.1,3.3-6.3c1.4-1.1,3.5-2.3,6-2c2.8,0.4,4.4,2.3,5.4,3.6l8,10.5
		l-5.3,4.1l-6.5-8.5c-0.8-1.1-1.9-2.4-3.4-2.6c-0.7-0.1-1.6,0.1-2.6,0.8c-1.1,0.8-1.5,1.8-1.5,2.6c-0.2,1.6,0.5,2.9,1.4,3.9l6.5,8.5
		l-5.3,4.1L106.3,64.9z"/>
</g>
<g class="st1">
	<path class="st0" d="M131.5,46.9l10.2,7l-1.1-12.3l6.4-3.7l1.4,23.3l-3.6,2.1l-19.6-12.7L131.5,46.9z"/>
</g>
<g class="st1">
	<path class="st0" d="M173.6,38.9l-14.3,6.2c0.4,1,1.4,2.2,2.6,2.8c1.4,0.6,2.7,0.2,3.7-0.2c0.9-0.4,1.8-1,2.2-1.6
		c0.1-0.1,0.6-0.9,0.6-2.2l6.1-1.9c0.3,3.1-0.8,5.2-1.6,6.4c-1.4,1.9-3.3,3.1-5.4,4c-2.9,1.2-5.6,1.8-8.8,0.6c-2.4-1-4.7-3-6.1-6.1
		c-1.2-2.7-1.4-6-0.3-8.8c1.3-3.3,4-5,6.1-5.9s5.4-1.9,8.8-0.4c3.3,1.4,5,4.2,6.1,6.6L173.6,38.9z M166.3,37.7
		c-0.1-0.2-0.9-1.2-2.2-1.7c-1-0.3-2.1-0.4-3.4,0.2c-1.6,0.7-2.3,1.7-2.6,2.6c-0.2,0.7-0.4,1.6-0.2,2.5L166.3,37.7z"/>
</g>
<g class="st1">
	<path class="st0" d="M187.3,28.2c-1.2-0.3-2.6-0.4-3.9,0c-0.7,0.2-1.4,0.6-1.6,1.2c-0.2,0.3-0.2,0.7-0.1,1c0.1,0.4,0.5,0.6,0.9,0.7
		c0.5,0.1,1.2,0.1,2.1,0.1h1.9c1.2,0,2.5,0.1,3.8,0.7c1.5,0.7,2.3,1.8,2.7,3.3c0.8,2.6,0.2,4.7-0.4,5.9c-1.3,2.6-3.7,3.6-5.8,4.3
		c-2.7,0.8-5.8,1.2-9-0.3l1.4-5.2c0.8,0.3,1.9,0.7,2.6,0.8c1,0.2,2,0.1,2.9-0.2c0.4-0.1,1.4-0.4,1.9-1.1c0.3-0.4,0.4-1,0.3-1.5
		c-0.1-0.4-0.4-0.8-1.1-0.9c-0.5-0.1-1.2-0.1-2.2-0.1h-1.8c-1.3,0-2.7-0.2-3.8-0.8c-1.2-0.7-2.1-1.7-2.6-3.2
		c-0.6-1.9-0.3-3.8,0.5-5.2c1.3-2.2,3.6-3.3,5.4-3.9c2.9-0.9,5.2-0.8,7.1-0.4L187.3,28.2z"/>
</g>
<g class="st1">
	<path class="st0" d="M201.4,24.9l3.3,15.1l-6.6,1.4l-3.3-15.1l-2.3,0.5l-1.2-5.3l2.3-0.5l-1.4-6.6l6.6-1.4l1.4,6.6l4.1-0.9l1.2,5.3
		L201.4,24.9z"/>
</g>
<g class="st1">
	<path class="st0" d="M209.4,5c2.2-0.3,4.1,1.1,4.5,3.3c0.3,2.2-1.1,4.1-3.3,4.5s-4.1-1.1-4.5-3.3C205.8,7.3,207.2,5.4,209.4,5z
		 M214.6,17.2l3.1,20.6l-6.7,1l-3-20.6L214.6,17.2z"/>
</g>
<g class="st1">
	<path class="st0" d="M236.6,15.4l6.7-0.3l1,19.5c0.1,2.9,0.2,6.3-2.1,9c-2.4,2.9-6.3,3.4-8.6,3.5c-2.8,0.1-6.1-0.1-8.8-2.2
		c-1.4-1.1-2.8-2.8-3.4-5.3l7.3-0.4c0.3,1.1,1,1.6,1.6,2c0.8,0.5,1.9,0.6,2.9,0.6c1.9-0.1,2.9-0.8,3.3-1.3c1.2-1.3,1.2-3.5,1.1-4.4
		l-0.1-2.4c-0.7,1.3-2.2,3.2-6,3.4c-3.2,0.2-5.7-0.7-7.8-2.6c-1.8-1.6-3.2-4.1-3.4-7.7c-0.2-3.5,1-6.5,2.7-8.5
		c1.2-1.4,3.5-3.2,7.4-3.4c3.8-0.2,5.6,1.7,6.4,2.8L236.6,15.4z M228.6,22.3c-1,1-1.5,2.7-1.4,4c0.1,1.4,0.7,2.7,1.6,3.7
		c1,0.9,2.3,1.4,3.9,1.3c1.8-0.1,2.9-0.8,3.6-1.5c1-1,1.5-2.5,1.4-4c-0.1-1.6-0.9-3-1.8-3.7c-1-0.8-2.5-1.2-3.7-1.1
		C230.7,20.8,229.4,21.4,228.6,22.3z"/>
</g>
<g class="st1">
	<path class="st0" d="M265.2,16.5l6.7,0.6l-1.8,20.8l-6.7-0.6l0.2-2.5c-2.1,2.6-4.7,2.8-6.4,2.7c-3-0.3-5.4-1.2-7.5-3.8
		c-2-2.5-2.6-5.3-2.4-8c0.3-3.5,1.9-6.4,3.9-8.1s4.6-2.5,7.5-2.2c1.8,0.2,4.6,0.8,6.3,3.6L265.2,16.5z M256.1,22.3
		c-0.8,0.6-1.7,1.8-1.9,3.6c-0.2,1.9,0.5,3.1,1.1,3.8c0.8,1.1,2.2,1.8,3.8,2c1.3,0.1,2.7-0.3,3.6-1.1c1-0.8,1.8-2,2-3.8
		c0.1-1.5-0.3-2.9-1.2-3.9c-0.9-1.1-2.4-1.7-3.6-1.8C258.5,21,257.1,21.5,256.1,22.3z"/>
</g>
<g class="st1">
	<path class="st0" d="M283.3,24.8L280.5,40l-6.6-1.3l2.9-15.1l-2.3-0.4l1-5.3l2.3,0.4l1.3-6.6l6.6,1.3l-1.3,6.6l4.1,0.8l-1,5.3
		L283.3,24.8z"/>
</g>
<g class="st1">
	<path class="st0" d="M298.5,22.9l-5.2,20.2l-6.5-1.7l5.2-20.2L298.5,22.9z M298.5,9.7c2.1,0.6,3.4,2.7,2.8,4.8s-2.7,3.4-4.8,2.8
		c-2.1-0.6-3.4-2.7-2.8-4.8C294.3,10.3,296.4,9.1,298.5,9.7z"/>
</g>
<g class="st1">
	<path class="st0" d="M317.4,48.4c-2.4,1.1-5.9,1.4-9.7,0c-3.8-1.4-6.3-3.9-7.4-6.3c-1.2-2.7-1.2-5.9-0.3-8.4s2.9-4.9,5.6-6.2
		c2.4-1.1,5.9-1.4,9.7,0c3.8,1.4,6.3,3.9,7.4,6.3c1.2,2.7,1.2,5.9,0.3,8.4S320.1,47.2,317.4,48.4z M309.3,33
		c-1.3,0.6-2.2,1.6-2.8,3.2c-0.7,1.8-0.4,3.2,0.1,4.2c0.5,1.1,1.4,2.1,3.1,2.7c1.4,0.5,2.8,0.5,4-0.1s2.2-1.6,2.8-3.2
		c0.6-1.6,0.5-3-0.1-4.2c-0.6-1.3-1.6-2.2-3-2.7C311.9,32.4,310.6,32.5,309.3,33z"/>
</g>
<g class="st1">
	<path class="st0" d="M331.1,34.6l6,3.1l-1.2,2.2c3-1.4,5.4-0.6,7.1,0.3c1.6,0.8,3.6,2.2,4.3,4.6c0.8,2.6-0.2,4.9-1,6.4l-6.1,11.7
		l-6-3.1l5-9.5c0.6-1.2,1.4-2.8,0.9-4.2c-0.2-0.7-0.8-1.5-1.8-2c-1.2-0.7-2.3-0.6-3-0.3c-1.5,0.5-2.4,1.7-3,2.9l-5,9.5l-6-3.1
		L331.1,34.6z"/>
</g>
<g class="st1">
	<path class="st0" d="M369.9,77.3l-9.2-7.4l-5.5,3.1l-5.8-4.7l29.3-16.4l5.1,4.1l-9.9,32l-5.8-4.7L369.9,77.3z M371.8,71.8l3.6-10.6
		l-9.6,5.7L371.8,71.8z"/>
</g>
<g class="st1">
	<path class="st0" d="M400,86l4.6,4.9l-14.3,13.3c-2.2,2-4.7,4.2-8.2,4.2c-3.8,0-6.7-2.7-8.2-4.3c-1.9-2-3.8-4.7-4-8.2
		c-0.1-1.7,0.3-3.9,1.9-6l5,5.4c-0.6,0.9-0.6,1.8-0.5,2.5c0.2,0.9,0.8,1.9,1.5,2.6c1.3,1.4,2.5,1.6,3.1,1.7c1.8,0.1,3.5-1.4,4.1-2
		l1.7-1.6c-1.5,0.3-3.9,0.4-6.5-2.4c-2.2-2.4-3.1-4.9-3-7.6c0.1-2.4,1-5.1,3.7-7.6c2.6-2.4,5.6-3.5,8.2-3.4c1.8,0,4.7,0.7,7.3,3.5
		c2.6,2.8,2.3,5.4,1.9,6.7L400,86z M389.6,84.3c-1.4-0.1-3,0.6-3.9,1.5c-1,0.9-1.7,2.3-1.8,3.6s0.4,2.6,1.5,3.8
		c1.2,1.3,2.5,1.7,3.5,1.7c1.4,0.1,2.9-0.5,4-1.5c1.2-1.1,1.7-2.5,1.7-3.8s-0.7-2.7-1.5-3.6C392.1,85,390.7,84.4,389.6,84.3z"/>
</g>
<g class="st1">
	<path class="st0" d="M411.3,119.7l-9-12.7c-0.9,0.7-1.9,1.9-2.2,3.1c-0.3,1.5,0.3,2.7,0.9,3.6c0.6,0.8,1.3,1.5,2.1,1.9
		c0.1,0.1,1,0.4,2.2,0.2l3.2,5.6c-2.9,0.9-5.3,0.3-6.6-0.2c-2.2-0.9-3.7-2.6-5.1-4.5c-1.8-2.5-3-5.1-2.4-8.5
		c0.4-2.5,1.9-5.2,4.7-7.2c2.4-1.7,5.6-2.6,8.5-2.2c3.5,0.6,5.7,2.9,7.1,4.8s3,4.9,2.2,8.5c-0.7,3.5-3.1,5.8-5.2,7.3L411.3,119.7z
		 M410.9,112.3c0.1-0.1,1-1.2,1.2-2.5c0.1-1-0.1-2.2-0.9-3.3c-1-1.4-2.2-1.8-3.1-2c-0.8-0.1-1.6,0-2.5,0.3L410.9,112.3z"/>
</g>
<g class="st1">
	<path class="st0" d="M423.3,117.1l3.2,5.9l-2.2,1.2c3.3,0.6,4.8,2.5,5.7,4.3c0.9,1.6,1.7,3.9,1,6.3c-0.8,2.7-2.9,3.9-4.4,4.7
		l-11.6,6.2l-3.2-5.9l9.4-5c1.2-0.6,2.7-1.5,3.1-2.9c0.2-0.7,0.2-1.6-0.4-2.7c-0.7-1.2-1.6-1.8-2.3-1.9c-1.5-0.5-2.9,0.1-4.1,0.7
		l-9.4,5l-3.2-5.9L423.3,117.1z"/>
</g>
<g class="st1">
	<path class="st0" d="M435.2,158.2c0.7-2,0.3-3.7-0.1-4.7c-0.8-2-2.2-2.7-2.8-3c-1.2-0.5-2.7-0.6-4.2,0c-1.4,0.6-2.4,1.6-3,2.7
		c-0.7,1.4-0.6,3-0.1,4.4c0.4,1.1,1.3,2.4,3.1,3.4l-5.6,2.2c-1.6-1.3-2.4-2.7-3.1-4.5c-1.3-3.3-1.1-6.2-0.1-8.7c0.8-2,2.7-4.6,6.2-6
		c3.3-1.3,6.5-1,8.9,0.2c2.9,1.4,4.6,3.6,5.7,6.3c0.7,1.7,1,3.4,0.9,5.3L435.2,158.2z"/>
</g>
<g class="st1">
	<path class="st0" d="M427.5,172.5l14.9-14.3l2,7.5l-9.4,8.6l12.4,2.6l2,7.3l-34.8-8l-2-7.3L427.5,172.5z"/>
</g>
<g class="st1">
	<path class="st0" d="M149.6,398.8l-9,16.4l-3.2-1.8l9-16.4L149.6,398.8z"/>
</g>
<g class="st1">
	<path class="st0" d="M145.6,418l7.7-17l2.3,1l5.2,16.1l5.2-11.4l3.3,1.5l-7.7,17l-2.3-1l-5.2-16.1l-5.2,11.4L145.6,418z"/>
</g>
<g class="st1">
	<path class="st0" d="M184.4,416.7l-4.7,14.8l-3.5-1.1l4.7-14.8l-4-1.3l0.9-3l11.5,3.6l-0.9,3L184.4,416.7z"/>
</g>
<g class="st1">
	<path class="st0" d="M195.3,416.4l-4.7,18.1l-3.5-0.9l4.7-18.1L195.3,416.4z"/>
</g>
<g class="st1">
	<path class="st0" d="M201.9,418.1l2.6,0.4l2.9,12.5l7.1-10.8l2.6,0.4l-0.1,18.9l-3.6-0.6l0.3-11.6l-6.9,10.5l-1.2-0.2l-2.8-12.2
		l-3.8,11l-3.6-0.6L201.9,418.1z"/>
</g>
<g class="st1">
	<path class="st0" d="M233.4,425.2l-6.7-0.5l-0.3,4.2l6.4,0.5l-0.2,3.1l-6.4-0.5l-0.4,5.1l6.7,0.5l-0.2,3.1l-10.3-0.8l1.4-18.6
		l10.3,0.8L233.4,425.2z"/>
</g>
<g class="st1">
	<path class="st0" d="M252.3,440.7l-2.7,0.2l-7.7-18.2l3.9-0.3l5,12.4l3.7-13.2l2-0.1l5.1,12.6l3.6-13l3.9-0.3l-5.7,19.1l-2.7,0.2
		l-4.8-11.6L252.3,440.7z"/>
</g>
<g class="st1">
	<path class="st0" d="M281.7,421.6l-6.6,1.1l0.7,4.1l6.4-1.1l0.5,3.1l-6.4,1.1l0.9,5l6.6-1.1l0.5,3.1l-10.2,1.7l-3.1-18.4l10.2-1.7
		L281.7,421.6z"/>
</g>
<g class="st1">
	<path class="st0" d="M297.9,417.5l4.2,15l-3.5,1l-4.2-15l-4,1.1l-0.8-3l11.6-3.2l0.8,3L297.9,417.5z"/>
</g>
<g class="st1">
	<path class="st0" d="M308.5,410.8c2.4-0.9,3.9-0.7,5-0.3c1.8,0.6,2.7,2,3.2,3.3c0.6,1.7,0.5,3.5-0.6,4.9c-0.3,0.5-0.9,1-1.6,1.5
		l8.2,5.4l-4.3,1.5l-7.2-5.4l-0.4,0.2l2.5,7.1l-3.4,1.2l-6.3-17.6L308.5,410.8z M309.7,419.5l1-0.4c0.7-0.2,3.3-1.3,2.4-3.9
		s-3.6-1.7-4.3-1.4l-1,0.4L309.7,419.5z"/>
</g>
<g class="st1">
	<path class="st0" d="M321.7,405.6l5,10.6c0.6,1.3,1.4,1.9,2,2.1c0.8,0.4,1.9,0.5,3.2-0.1c1.3-0.6,1.9-1.6,2.1-2.4
		c0.2-0.6,0.2-1.6-0.4-2.9l-5-10.6l3.3-1.5l4.8,10.4c0.7,1.6,1.2,3.3,0.8,5.1c-0.5,2.2-2.2,4-4.4,5c-2.2,1-4.7,1.2-6.7,0.1
		c-1.6-0.8-2.6-2.3-3.4-3.9l-4.8-10.4L321.7,405.6z"/>
</g>
<g class="st1">
	<path class="st0" d="M345.7,397.9c-1.7-0.7-2.9-0.2-3.4,0.1c-1.7,1-1.6,2.4-1.1,3.2c0.2,0.4,0.6,0.7,1.1,0.8c0.6,0.1,1.2,0,2.5-0.2
		c1.5-0.3,3-0.5,4.2-0.3c1.1,0.2,2.4,0.9,3.3,2.6c1.8,3.2,0.8,6.6-2.6,8.6c-3,1.7-5.8,0.9-7.3,0.2l0.9-3.2c1.7,1.1,3.5,0.9,4.6,0.2
		c1.4-0.8,2-2.3,1.2-3.7c-0.3-0.6-0.8-0.9-1.5-1.1c-0.9-0.2-2.1,0-3.2,0.3c-1,0.2-2.3,0.4-3.5,0.1c-0.8-0.2-2.1-0.6-3-2.3
		c-1.4-2.4-1.1-5.7,2.5-7.8c1-0.6,3-1.5,5.7-0.8L345.7,397.9z"/>
</g>
<g class="st1">
	<path class="st0" d="M355,390.6l8.8,12.9l-3,2l-8.8-12.9l-3.5,2.4l-1.8-2.6l10-6.8l1.8,2.6L355,390.6z"/>
</g>
<circle class="st0" cx="239.1" cy="225.5" r="4"/>
</svg>
