<?xml version="1.0" encoding="utf-8"?>
<!-- Generator: Adobe Illustrator 26.5.3, SVG Export Plug-In . SVG Version: 6.00 Build 0)  -->
<svg version="1.1" id="Layer_2_00000021077893186770878280000016731898936074944936_"
	 xmlns="http://www.w3.org/2000/svg" xmlns:xlink="http://www.w3.org/1999/xlink" x="0px" y="0px" viewBox="0 0 432 447.9"
	 style="enable-background:new 0 0 432 447.9;" xml:space="preserve">
<style type="text/css">
	.st0{fill:#FD7E25;}
	.st1{fill:none;stroke:#FD7E25;stroke-width:10;stroke-miterlimit:10;}
	.st2{fill:none;stroke:#FD7E25;stroke-width:7;stroke-miterlimit:10;}
	.st3{fill:none;stroke:#FD7E25;stroke-width:8;stroke-miterlimit:10;}
	.st4{font-family:'FuturaPT-Heavy';}
	.st5{font-size:46.7px;}
	.st6{font-family:'FuturaPT-Demi';}
	.st7{font-size:28.02px;}
</style>
<g id="Layer_1-2">
	<path class="st0" d="M217.4,62.6c43.4,0,84.2,16.9,114.9,47.6c30.7,30.7,47.6,71.5,47.6,114.9S363,309.3,332.3,340
		c-30.7,30.7-71.5,47.6-114.9,47.6s-84.2-16.9-114.9-47.6c-30.7-30.7-47.6-71.5-47.6-114.9s16.9-84.2,47.6-114.9
		C133.2,79.5,174,62.6,217.4,62.6 M217.4,52.6c-95.3,0-172.5,77.2-172.5,172.5s77.2,172.5,172.5,172.5s172.5-77.2,172.5-172.5
		S312.7,52.6,217.4,52.6L217.4,52.6L217.4,52.6z"/>
	<g>
		<line class="st1" x1="216.9" y1="79.2" x2="216.9" y2="115.9"/>
		<line class="st1" x1="71.6" y1="225.6" x2="108.3" y2="225.6"/>
		<line class="st1" x1="217.9" y1="371" x2="217.9" y2="334.2"/>
		<line class="st1" x1="363.3" y1="224.6" x2="326.6" y2="224.6"/>
		<line class="st2" x1="143.3" y1="97.8" x2="154.6" y2="117.5"/>
		<line class="st2" x1="89.6" y1="152" x2="109.3" y2="163.3"/>
		<line class="st2" x1="90.2" y1="299.2" x2="109.8" y2="287.9"/>
		<line class="st2" x1="144.3" y1="352.9" x2="155.7" y2="333.3"/>
		<line class="st2" x1="291.6" y1="352.4" x2="280.2" y2="332.7"/>
		<line class="st2" x1="345.3" y1="298.2" x2="325.6" y2="286.9"/>
		<line class="st2" x1="344.7" y1="150.9" x2="325" y2="162.3"/>
		<line class="st2" x1="290.6" y1="97.3" x2="279.2" y2="116.9"/>
	</g>
	<line class="st3 hours" x1="217.6" y1="181.9" x2="217.6" y2="221.7"/>
	<line class="st3 minutes" x1="177.1" y1="156" x2="216.9" y2="224.9"/>
	<circle cx="50%" cy="50%" r="8" fill="#FD7E25"></circle>
	<text transform="matrix(0.3022 -0.9532 0.9532 0.3022 33.1622 178.1102)" class="st0 st4 st5">T</text>
	<text transform="matrix(0.3762 -0.9265 0.9265 0.3762 39.0723 159.7197)" class="st0 st4 st5">i</text>
	<text transform="matrix(0.4901 -0.8716 0.8716 0.4901 42.3322 149.1701)" class="st0 st4 st5">m</text>
	<text transform="matrix(0.6205 -0.7842 0.7842 0.6205 60.7524 117.13)" class="st0 st4 st5">e</text>
	<text transform="matrix(0.7308 -0.6826 0.6826 0.7308 82.7224 91.0702)" class="st0 st4 st5">I</text>
	<text transform="matrix(0.7951 -0.6065 0.6065 0.7951 91.7922 82.0802)" class="st0 st4 st5">n</text>
	<text transform="matrix(0.8634 -0.5045 0.5045 0.8634 110.5024 67.6197)" class="st0 st4 st5">v</text>
	<text transform="matrix(0.918 -0.3965 0.3965 0.918 130.2224 55.91)" class="st0 st4 st5">e</text>
	<text transform="matrix(0.9546 -0.2979 0.2979 0.9546 152.2224 46.54)" class="st0 st4 st5">s</text>
	<text transform="matrix(0.9769 -0.2135 0.2135 0.9769 170.3024 41.02)" class="st0 st4 st5">t</text>
	<text transform="matrix(0.9888 -0.1495 0.1495 0.9888 182.9724 38.24)" class="st0 st4 st5">i</text>
	<text transform="matrix(0.9987 -5.059294e-02 5.059294e-02 0.9987 194.1623 36.1)" class="st0 st4 st5">g</text>
	<text transform="matrix(0.9963 8.593860e-02 -8.593860e-02 0.9963 219.8223 34.6501)" class="st0 st4 st5">a</text>
	<text transform="matrix(0.9823 0.1874 -0.1874 0.9823 246.0323 37.18)" class="st0 st4 st5">t</text>
	<text transform="matrix(0.9679 0.2512 -0.2512 0.9679 258.7523 39.59)" class="st0 st4 st5">i</text>
	<text transform="matrix(0.9386 0.3451 -0.3451 0.9386 269.8929 42.03)" class="st0 st4 st5">o</text>
	<text transform="matrix(0.8854 0.4648 -0.4648 0.8854 294.0023 50.8)" class="st0 st4 st5">n</text>
	<text transform="matrix(0.7796 0.6263 -0.6263 0.7796 324.2224 67.25)" class="st0 st4 st5">A</text>
	<text transform="matrix(0.6811 0.7322 -0.7322 0.6811 347.1625 85.6599)" class="st0 st4 st5">g</text>
	<text transform="matrix(0.58 0.8146 -0.8146 0.58 364.7817 104.5)" class="st0 st4 st5">e</text>
	<text transform="matrix(0.4716 0.8818 -0.8818 0.4716 378.5926 123.63)" class="st0 st4 st5">n</text>
	<text transform="matrix(0.3686 0.9296 -0.9296 0.3686 390.1824 145.4899)" class="st0 st4 st5">c</text>
	<text transform="matrix(0.2607 0.9654 -0.9654 0.2607 397.2414 162.47)" class="st0 st4 st5">y</text>
	<text transform="matrix(0.8766 0.4813 -0.4813 0.8766 110.4025 411.4301)" class="st0 st6 st7">I</text>
	<text transform="matrix(0.9105 0.4134 -0.4134 0.9105 118.5126 416.1201)" class="st0 st6 st7">N</text>
	<text transform="matrix(0.9539 0.3 -0.3 0.9539 146.9723 428.12)" class="st0 st6 st7">T</text>
	<text transform="matrix(0.9684 0.2494 -0.2494 0.9684 159.9724 432.11)" class="st0 st6 st7">I</text>
	<text transform="matrix(0.9855 0.1697 -0.1697 0.9855 169.0221 434.73)" class="st0 st6 st7">M</text>
	<text transform="matrix(0.9973 7.410849e-02 -7.410849e-02 0.9973 194.7323 438.82)" class="st0 st6 st7">E</text>
	<text transform="matrix(0.9979 -6.488065e-02 6.488065e-02 0.9979 217.8923 440.36)" class="st0 st6 st7">W</text>
	<text transform="matrix(0.9857 -0.1685 0.1685 0.9857 246.9024 438.03)" class="st0 st6 st7">E</text>
	<text transform="matrix(0.963 -0.2694 0.2694 0.963 269.3225 433.6901)" class="st0 st6 st7">T</text>
	<text transform="matrix(0.9406 -0.3394 0.3394 0.9406 282.6323 429.98)" class="st0 st6 st7">R</text>
	<text transform="matrix(0.9063 -0.4226 0.4226 0.9063 299.2523 423.9801)" class="st0 st6 st7">U</text>
	<text transform="matrix(0.8664 -0.4994 0.4994 0.8664 318.0423 415.0399)" class="st0 st6 st7">S</text>
	<text transform="matrix(0.8266 -0.5628 0.5628 0.8266 331.9922 406.9598)" class="st0 st6 st7">T</text>
</g>
</svg>
